TITLE ""
FILE "Step3_Track28.mp3" MP3
  TRACK 01 AUDIO
    TITLE "Step3_Track28_01"
    INDEX 01 00:00:00
  TRACK 02 AUDIO
    TITLE "Step3_Track28_02"
    INDEX 01 00:00:22
  TRACK 03 AUDIO
    TITLE "Step3_Track28_03"
    INDEX 01 00:01:67
  TRACK 04 AUDIO
    TITLE "Step3_Track28_04"
    INDEX 01 00:02:46
  TRACK 05 AUDIO
    TITLE "Step3_Track28_05"
    INDEX 01 00:03:44
  TRACK 06 AUDIO
    TITLE "Step3_Track28_06"
    INDEX 01 00:03:63
  TRACK 07 AUDIO
    TITLE "Step3_Track28_07"
    INDEX 01 00:06:03
  TRACK 08 AUDIO
    TITLE "Step3_Track28_08"
    INDEX 01 00:06:17
  TRACK 09 AUDIO
    TITLE "Step3_Track28_09"
    INDEX 01 00:07:08
  TRACK 10 AUDIO
    TITLE "Step3_Track28_10"
    INDEX 01 00:07:24
  TRACK 11 AUDIO
    TITLE "Step3_Track28_11"
    INDEX 01 00:09:07
  TRACK 12 AUDIO
    TITLE "Step3_Track28_12"
    INDEX 01 00:09:39
  TRACK 13 AUDIO
    TITLE "Step3_Track28_13"
    INDEX 01 00:10:34
  TRACK 14 AUDIO
    TITLE "Step3_Track28_14"
    INDEX 01 00:10:56
  TRACK 15 AUDIO
    TITLE "Step3_Track28_15"
    INDEX 01 00:13:05
  TRACK 16 AUDIO
    TITLE "Step3_Track28_16"
    INDEX 01 00:13:33
  TRACK 17 AUDIO
    TITLE "Step3_Track28_17"
    INDEX 01 00:14:24
  TRACK 18 AUDIO
    TITLE "Step3_Track28_18"
    INDEX 01 00:14:48
  TRACK 19 AUDIO
    TITLE "Step3_Track28_19"
    INDEX 01 00:16:39
  TRACK 20 AUDIO
    TITLE "Step3_Track28_20"
    INDEX 01 00:16:54
  TRACK 21 AUDIO
    TITLE "Step3_Track28_21"
    INDEX 01 00:17:48
  TRACK 22 AUDIO
    TITLE "Step3_Track28_22"
    INDEX 01 00:17:73
  TRACK 23 AUDIO
    TITLE "Step3_Track28_23"
    INDEX 01 00:20:07
  TRACK 24 AUDIO
    TITLE "Step3_Track28_24"
    INDEX 01 00:20:15
  TRACK 25 AUDIO
    TITLE "Step3_Track28_25"
    INDEX 01 00:21:16
  TRACK 26 AUDIO
    TITLE "Step3_Track28_26"
    INDEX 01 00:21:48
  TRACK 27 AUDIO
    TITLE "Step3_Track28_27"
    INDEX 01 00:23:56
  TRACK 28 AUDIO
    TITLE "Step3_Track28_28"
    INDEX 01 00:23:64
  TRACK 29 AUDIO
    TITLE "Step3_Track28_29"
    INDEX 01 00:24:68
  TRACK 30 AUDIO
    TITLE "Step3_Track28_30"
    INDEX 01 00:25:08
  TRACK 31 AUDIO
    TITLE "Step3_Track28_31"
    INDEX 01 00:27:35
  TRACK 32 AUDIO
    TITLE "Step3_Track28_32"
    INDEX 01 00:27:62
  TRACK 33 AUDIO
    TITLE "Step3_Track28_33"
    INDEX 01 00:28:52
  TRACK 34 AUDIO
    TITLE "Step3_Track28_34"
    INDEX 01 00:29:02
  TRACK 35 AUDIO
    TITLE "Step3_Track28_35"
    INDEX 01 00:30:72
  TRACK 36 AUDIO
    TITLE "Step3_Track28_36"
    INDEX 01 00:31:25
  TRACK 37 AUDIO
    TITLE "Step3_Track28_37"
    INDEX 01 00:32:30
  TRACK 38 AUDIO
    TITLE "Step3_Track28_38"
    INDEX 01 00:32:46
  TRACK 39 AUDIO
    TITLE "Step3_Track28_39"
    INDEX 01 00:34:72
  TRACK 40 AUDIO
    TITLE "Step3_Track28_40"
    INDEX 01 00:35:16
  TRACK 41 AUDIO
    TITLE "Step3_Track28_41"
    INDEX 01 00:36:12
  TRACK 42 AUDIO
    TITLE "Step3_Track28_42"
    INDEX 01 00:36:37
  TRACK 43 AUDIO
    TITLE "Step3_Track28_43"
    INDEX 01 00:39:42
